<?xml version="1.0" encoding="utf-8"?>
<!-- Generator: Adobe Illustrator 24.2.3, SVG Export Plug-In . SVG Version: 6.00 Build 0)  -->
<svg version="1.1" id="Layer_1" xmlns="http://www.w3.org/2000/svg" xmlns:xlink="http://www.w3.org/1999/xlink" x="0px" y="0px"
	 viewBox="0 0 595.28 841.89" style="enable-background:new 0 0 595.28 841.89;" xml:space="preserve">
<style type="text/css">
	.st0{fill:#4D4D4F;}
	.st1{fill:#008AB3;}
</style>
<g>
	<path class="st0" d="M250.76,405.68l-3.35,3.37l0.01,6.11c0,0-0.09,0.94-0.29,1.45h2.15l6.15-6.2L250.76,405.68z"/>
	<polygon class="st0" points="251.91,403.27 250.85,404.52 256.59,410.31 257.76,409.12 	"/>
	<polygon class="st0" points="258.19,407.95 263.1,403.13 257.83,397.84 253.1,402.97 	"/>
	<polygon class="st0" points="265.97,402.59 258.19,394.79 258.31,396.95 263.94,402.59 	"/>
	<path class="st0" d="M237.35,443.6h3.22c0,0,0.2-1.36,1.11-1.36h13.34v-23.46l-1.34-1.38v23.26h-11.93c0,0-1.59,0.13-2.86,1.67
		c0,0-0.97-1.47-3.08-1.62h-11.63v-23.09l-1.45,1.45v23.17h13.02C235.75,442.24,237.35,442.33,237.35,443.6"/>
	<polygon class="st0" points="225.56,408.38 229.88,412.61 229.88,409.31 225.56,405.02 	"/>
	<path class="st0" d="M224.7,414.83l1.68,1.7h3.75c-0.19-0.38-0.14-1.69-0.14-1.69L224.7,414.83z"/>
	<polygon class="st0" points="229.88,414.24 229.88,413.54 226.68,410.39 220.29,410.39 224.14,414.24 	"/>
	<path class="st0" d="M223.77,407.54L223.77,407.54l-1.14-1.14c0,0-0.84,1.04-1.04,1.19c-0.19,0.14-1.43,1.04-2.67,1.31l0.96,0.99
		l6.18-0.02L223.77,407.54z"/>
	<path class="st0" d="M224.89,404.41c0,0-0.49,0.71-2.31,1.1l2.31,2.13V404.41z"/>
	<path class="st0" d="M218.74,397.93l-3.76-3.81c-2.34-2.33-5.11-0.79-5.11-0.79l7.43,7.39
		C217.79,398.85,218.74,397.93,218.74,397.93"/>
	<path class="st0" d="M215.85,400.26l-6.41-6.43c0,0-2.4,1.25-0.62,6.43H215.85z"/>
	<path class="st0" d="M213.7,405.33c0,0-0.27-1.89,1.53-4.48h-6.12C209.11,400.85,209.38,402.26,213.7,405.33"/>
	<rect x="255.41" y="421.11" class="st0" width="2.05" height="2.56"/>
	<rect x="220.08" y="421.31" class="st0" width="2.05" height="2.58"/>
	<rect x="255.52" y="433.82" class="st0" width="2.04" height="2.59"/>
	<rect x="220.16" y="433.6" class="st0" width="2.04" height="2.55"/>
	<polygon class="st0" points="255.52,437.78 255.52,440.38 267.13,450.05 269.45,450.05 257.62,437.78 	"/>
	<path class="st0" d="M216.23,444.78l-4.96,5.08c0,0-0.62,0.88-0.03,1.47c0,0,0.55,0.47,1.3-0.11l5.2-4.51c0,0-1.11-0.77-1.41-1.73"
		/>
	<path class="st0" d="M208.38,414.72c-1.08,4.81,2.96,8.22,2.96,8.22c4.64-3.06,4.57-5.97,4.57-5.97c-3.15,0.8-4.51,4.71-4.51,4.71
		C211.61,417.4,208.38,414.72,208.38,414.72"/>
	<path class="st0" d="M211.79,427.7c4.05-3.85,3.48-6.64,3.48-6.64c-2.95,1.37-3.63,5.42-3.63,5.42c-0.54-4.25-4.17-6.33-4.17-6.33
		C207.22,425.08,211.79,427.7,211.79,427.7"/>
	<path class="st0" d="M213.06,432.36c3.33-4.47,2.28-7.19,2.28-7.19c-2.67,1.85-2.63,6-2.63,6c-1.29-4.12-5.22-5.52-5.22-5.52
		C208.1,430.53,213.06,432.36,213.06,432.36"/>
	<path class="st0" d="M215.12,436.71c2.51-5.02,1-7.46,1-7.46c-2.31,2.29-1.55,6.37-1.55,6.37c-1.98-3.86-6.1-4.57-6.1-4.57
		C209.93,435.75,215.12,436.71,215.12,436.71"/>
	<path class="st0" d="M217.91,440.61c1.58-5.34-0.31-7.51-0.31-7.51c-1.89,2.65-0.43,6.53-0.43,6.53c-2.6-3.48-6.79-3.42-6.79-3.42
		C212.62,440.59,217.91,440.61,217.91,440.61"/>
	<path class="st0" d="M213.17,440.97c2.95,3.93,8.16,3.03,8.16,3.03c0.63-5.55-1.61-7.32-1.61-7.32c-1.4,2.93,0.73,6.48,0.73,6.48
		C217.26,440.23,213.17,440.97,213.17,440.97"/>
	<path class="st0" d="M225.29,446.72c-0.1-1.73-0.42-2.95-0.8-3.98h-1.97c0.53,1.86,1.74,3.27,1.74,3.27
		c-3.64-2.29-7.53-0.83-7.53-0.83C220.31,448.47,225.29,446.72,225.29,446.72"/>
	<path class="st0" d="M226.3,442.77h-0.68c-0.05,3.04,2.89,5.47,2.89,5.47c-3.98-1.7-7.58,0.43-7.58,0.43
		c4.13,2.67,8.7,0.04,8.7,0.04C228.76,444.99,227.2,443.42,226.3,442.77"/>
	<path class="st0" d="M229.24,444.37c0.28,3.25,3.86,5.29,3.86,5.29c-4.21-0.95-7.39,1.71-7.39,1.71c4.53,1.94,8.58-1.44,8.58-1.44
		C232.08,444.83,229.24,444.37,229.24,444.37"/>
	<path class="st0" d="M212,416.95c0.94-4.21-1.74-7.39-1.74-7.39c-1.92,4.53,1.47,8.56,1.47,8.56c5.09-2.16,5.54-5.04,5.54-5.04
		C214.02,413.36,212,416.95,212,416.95"/>
	<path class="st0" d="M219.1,409.79l-0.25-0.31c-3.04,0-5.45,2.89-5.45,2.89c1.14-2.72,0.52-5.21,0.02-6.58l-0.73-0.58
		c-2.09,3.95,0.22,8.33,0.22,8.33C217.23,412.47,218.7,410.53,219.1,409.79"/>
	<path class="st0" d="M216.46,400.59c-3.33,3.55-1.52,8.56-1.52,8.56c5.55-0.34,6.92-2.88,6.92-2.88c-3.12-0.85-6.25,1.83-6.25,1.83
		C217.94,404.5,216.46,400.59,216.46,400.59"/>
	<path class="st0" d="M217.65,405.16c5.55,0.62,7.34-1.6,7.34-1.6c-2.93-1.41-6.5,0.71-6.5,0.71c2.92-3.16,2.18-7.31,2.18-7.31
		C216.75,400,217.65,405.16,217.65,405.16"/>
	<path class="st0" d="M228.52,401.44c-2.65-1.88-6.51-0.44-6.51-0.44c3.43-2.63,3.42-6.78,3.42-6.78c-4.39,2.27-4.4,7.54-4.4,7.54
		C226.37,403.33,228.52,401.44,228.52,401.44"/>
	<path class="st0" d="M230,400.43l0.05-1.82c-1.99-0.58-4-0.19-4-0.19c3.83-1.95,4.53-6.1,4.53-6.1c-4.7,1.45-5.65,6.65-5.65,6.65
		C227.1,400.03,228.77,400.38,230,400.43"/>
	<path class="st0" d="M229.4,397.01l3.67-0.06c-1.13-0.68-2.38-0.65-2.38-0.65c4.12-1.3,5.26-4.97,5.26-4.97
		c-4.86,0.65-6.7,5.56-6.7,5.56C229.34,396.95,229.34,396.95,229.4,397.01"/>
	<path class="st0" d="M266.44,422.32c0,0,3.97-3.54,2.75-8.31c0,0-3.15,2.75-2.83,7.06c0,0-1.47-3.87-4.63-4.62
		C261.73,416.45,261.73,419.34,266.44,422.32"/>
	<path class="st0" d="M266.21,425.87c0,0-0.76-4.05-3.74-5.36c0,0-0.52,2.81,3.63,6.6c0,0,4.5-2.79,4.14-7.7
		C270.24,419.41,266.67,421.57,266.21,425.87"/>
	<path class="st0" d="M262.49,424.63c0,0-0.97,2.71,2.45,7.14c0,0,4.92-1.98,5.41-6.85c0,0-3.91,1.49-5.1,5.65
		C265.24,430.56,265.21,426.44,262.49,424.63"/>
	<path class="st0" d="M263.51,435.01c0,0,0.65-4.06-1.71-6.31c0,0-1.43,2.47,1.18,7.42c0,0,5.17-1.05,6.51-5.75
		C269.49,430.37,265.38,431.12,263.51,435.01"/>
	<path class="st0" d="M260.42,432.6c0,0-1.84,2.19-0.14,7.53c0,0,5.29-0.18,7.41-4.58c0,0-4.15,0.08-6.69,3.55
		C261,439.1,262.36,435.22,260.42,432.6"/>
	<path class="st0" d="M262.99,442.28c0.81-0.51,1.41-1.03,2.06-1.91c0,0-1.54-0.32-3.63,0.33L262.99,442.28z"/>
	<path class="st0" d="M254.05,445.68c0,0,1.08-1.25,1.59-3.05h-1.96c-0.33,0.96-0.57,2.2-0.61,3.78c0,0,4.28,1.41,7.69-1.11
		l-1.3-1.01C257.99,444.18,255.97,444.39,254.05,445.68"/>
	<path class="st0" d="M249.87,448.01c0,0,2.74-2.41,2.77-5.38l-0.98,0.04c-0.9,0.8-2.2,2.48-2.93,5.8c0,0,4.66,2.51,8.71-0.24
		C257.44,448.24,253.79,446.24,249.87,448.01"/>
	<path class="st0" d="M245.3,449.48c0,0,3.56-2.08,3.74-5.33c0,0-2.83,0.49-4.94,5.68c0,0,4.15,3.24,8.62,1.28
		C252.73,451.1,249.49,448.44,245.3,449.48"/>
	<path class="st0" d="M265.95,417.51c0,0,3.29-4.11,1.26-8.6c0,0-2.62,3.24-1.56,7.38c0,0-2.11-3.52-5.37-3.74
		C260.28,412.56,260.79,415.38,265.95,417.51"/>
	<path class="st0" d="M264.64,412.88c0,0,2.51-4.64-0.24-8.71c0,0-2.04,3.68-0.28,7.59c0,0-2.7-3.14-5.92-2.71
		C258.2,409.05,259.19,411.72,264.64,412.88"/>
	<path class="st0" d="M260.61,406.76l-1.47,1.38c0.95,0.28,1.94,0.37,3.4,0.44c0,0,0.65-1.76,0.32-4.06l-1.71,1.74"/>
	<path class="st0" d="M254.57,400.13l1.19-1.2c-0.5-1.72-1.53-3.77-4.07-4.97C251.69,393.95,251.58,397.58,254.57,400.13"/>
	<path class="st0" d="M252.81,402.03l1.47-1.53c-1.26-0.31-3.6-0.74-5.53,0.69C248.75,401.19,249.74,402.3,252.81,402.03"/>
	<path class="st0" d="M251.18,398.11c0,0-1.61-0.51-3.6,0.2l-0.01,1.83c1.22,0,2.47-0.32,4.72-1.52c0,0-1.07-5.15-5.78-6.47
		C246.5,392.16,247.29,396.2,251.18,398.11"/>
	<path class="st0" d="M238.49,448.98v1.22c-0.57-0.87-2.77-4.07-5.23-4.21c0,0,0.84,2.82,4.55,4.54c0,0-4.66,0.3-6.56,2.82
		c0,0,4.05,0.39,7.24-2.78v1.97h1.21v-2.09v-1.47H238.49z"/>
	<path class="st0" d="M240.53,450.5c3.7-1.69,4.51-4.6,4.51-4.6c-2.85,0.26-5.34,4.56-5.34,4.56c3.22,3.28,7.4,2.85,7.4,2.85
		C245.2,450.78,240.53,450.5,240.53,450.5"/>
	<path class="st0" d="M238.55,395.79c0.4,0,0.71-0.33,0.71-0.7c0-0.38-0.31-0.7-0.71-0.7c-0.4,0-0.68,0.32-0.68,0.7
		C237.86,395.46,238.15,395.79,238.55,395.79"/>
	<path class="st0" d="M244.25,396.08c-1.02-2.3-4.47-0.72-4.47-0.72C242.69,397.2,244.25,396.08,244.25,396.08"/>
	<path class="st0" d="M232.88,396.28c0,0,1.61,1.05,4.45-0.87C237.33,395.4,233.83,393.95,232.88,396.28"/>
	<polygon class="st0" points="232.67,432.24 232.52,431.44 232.44,432.24 232.18,433.66 232.93,433.66 	"/>
	<path class="st0" d="M235.24,425.08c0-0.37-0.2-0.7-0.74-0.66h-0.14v1.4h0.19C235.03,425.82,235.24,425.51,235.24,425.08"/>
	<path class="st0" d="M224.81,417.32v22.59h11.18c1.25,0.03,2.56,1.05,2.56,1.05v-18.09c-6.49,0-8.13-5.55-8.13-5.55H224.81z
		 M230.57,431.05h-0.83v4.37h-1.06v-4.37h-0.84v-0.98h2.73V431.05z M236.63,423.54h1.06v5.36h-1.06V423.54z M237.07,430.25v1.01
		c-0.2-0.17-0.47-0.35-0.76-0.35c-0.32,0-0.55,0.21-0.55,0.58c0,0.85,1.63,0.92,1.63,2.36c0,0.94-0.54,1.65-1.55,1.65
		c-0.29,0-0.65-0.07-0.9-0.22v-1.03c0.25,0.14,0.49,0.27,0.8,0.27c0.35,0,0.6-0.21,0.6-0.6c0-0.37-0.29-0.57-0.62-0.73
		c-0.61-0.44-0.99-0.85-0.99-1.65c0-0.82,0.51-1.56,1.39-1.56C236.48,429.98,236.8,430.07,237.07,430.25 M233.31,423.54h1.05
		c0.68,0,1.89,0.04,1.89,1.53c0,0.58-0.22,1.07-0.75,1.4l0.92,2.43h-1.11l-0.94-2.5h-0.01v2.5h-1.05V423.54z M234.41,435.42h-1.11
		l-0.23-0.91H232l-0.18,0.91h-1.05l1.23-5.36h1.11L234.41,435.42z M230.96,423.54h2.13v0.97H232v1.17h0.96v1H232v1.22h1.11v1h-2.15
		V423.54l-1.49,5.36h-0.87l-1.55-5.36h1.15l0.64,2.59c0.09,0.27,0.12,0.57,0.17,0.9h0.04c0.04-0.35,0.07-0.63,0.16-0.9l0.65-2.59
		H230.96z"/>
	<polygon class="st0" points="249.78,431.48 249.75,431.48 249.64,432.28 249.4,433.73 250.16,433.73 249.9,432.28 	"/>
	<path class="st0" d="M239.3,422.72v18.24c0,0,1.03-1.05,2.47-1.05h11.28v-22.59h-6.07C246.97,417.32,245.04,423.31,239.3,422.72
		 M240.3,423.58h1.05v4.37h1.12v1.01h-2.17V423.58z M243.73,435.47l-0.26-3.9h-0.01l-0.17,1.36l-0.45,2.54h-0.81l-0.52-2.59
		l-0.17-1.19v-0.12h-0.04l-0.14,3.9h-1.15l0.48-5.41h1.39l0.51,3.21h0.01l0.44-3.21h1.41l0.57,5.41H243.73z M250.51,435.47
		l-0.2-0.89h-1.06l-0.2,0.89h-1.04l1.25-5.41h1.11l1.3,5.41H250.51z M247.29,423.58h1.19l0.31,0.74c0.09,0.24,0.2,0.51,0.25,0.8
		h0.02c0.04-0.28,0.14-0.56,0.23-0.8l0.31-0.74h1.15l-1.15,2.56l1.24,2.81h-1.24l-0.34-0.87c-0.09-0.27-0.16-0.55-0.22-0.83h-0.01
		c-0.09,0.28-0.14,0.56-0.25,0.83l-0.31,0.87h-1.19l1.13-2.81L247.29,423.58z M247.6,430.07v1.02h-1.09v1.15h0.95v1.02h-0.95v1.23
		h1.1v0.99h-2.15v-5.41H247.6z M245.39,427.25v-3.67h1.05v3.87c0,0.6-0.08,1.55-1.58,1.55c-1,0-1.6-0.45-1.6-1.47v-3.95h1.06v3.45
		c0,0.39-0.05,1.02,0.54,1.02C245.38,428.05,245.38,427.65,245.39,427.25"/>
	<path class="st0" d="M230.76,415.16c1.37,7.2,8.13,6.83,8.13,6.83c7.04,0,7.73-6.77,7.73-6.77v-17.7h-15.86V415.16z M234.58,402.24
		v-2.41h7.45v3.43h2.48v2.43h-2.39v1.11h2.39v2.67h-2.39v8h-2.06l-2.84-2.87l-2.59,2.64l-1.89-1.88l4.31-4.34l2.23,2.25v-11.03
		H234.58z"/>
	<path class="st0" d="M247.74,397.01l-3.68-0.06c1.15-0.68,2.38-0.65,2.38-0.65c-4.1-1.3-5.29-4.97-5.29-4.97
		c4.88,0.65,6.7,5.56,6.7,5.56C247.82,396.95,247.81,396.95,247.74,397.01"/>
	<path class="st0" d="M257.93,388.76c0,0-1.18,4.98,2.71,5.75"/>
	<path class="st0" d="M257.29,388.14c0,0,1.4,2.49,5.3,2.95c0,0,2.76,0.14,4.59,1.68c0,0,2.73,2.34,1.96,5.25
		c0,0-0.29,2.71-3.16,2.92c0,0-2.75-0.1-4.24-1.62c0,0-1.46-1.26-0.92-3.37c0,0,0.52-1.86,2.51-1.49c0,0,1.92,0.29,1.7,2.42
		c0,0-0.13,0.45-0.14,0.45c0,0-0.14,0.69,0.42,0.28c0,0,0.27-0.05,0.27-0.99c0,0,0.19-1.25-0.99-2.16c0,0-1.25-1.16-2.97-0.33
		c0,0-1.23,0.8-2.77,0.03c0,0-1.64-0.61-1.91-3.17C256.94,390.98,256.83,389.3,257.29,388.14"/>
	<path class="st1" d="M313.1,450.96c0,2.27-1.26,3.41-3.79,3.41h-15.06c-3.28,0-6.07-1.15-8.38-3.47c-2.31-2.31-3.46-5.11-3.46-8.4
		v-40.47c0-3.29,1.15-6.09,3.46-8.4c2.3-2.31,5.1-3.47,8.38-3.47h12.79c1.07,0,1.97,0.3,2.7,0.9c0.73,0.6,1.09,1.44,1.09,2.51v5.3
		h-14.39c-1.2,0-2.21,0.41-3.03,1.23c-0.82,0.83-1.23,1.84-1.23,3.04v38.23c0,1.2,0.41,2.22,1.23,3.04
		c0.82,0.82,1.83,1.23,3.03,1.23h16.66V450.96z"/>
	<path class="st1" d="M351.72,442.5c0,3.29-1.15,6.1-3.46,8.41c-2.3,2.31-5.09,3.47-8.37,3.47h-17.71c-1.07,0-1.97-0.3-2.7-0.9
		c-0.73-0.6-1.09-1.44-1.09-2.51v-5.31h19.32c1.2,0,2.21-0.41,3.02-1.23c0.82-0.82,1.24-1.84,1.24-3.05v-10.47
		c0-1.21-0.42-2.22-1.24-3.04c-0.81-0.83-1.83-1.24-3.02-1.24h-6.73c-3.29,0-6.08-1.15-8.38-3.46c-2.3-2.31-3.45-5.11-3.45-8.41
		v-12.72c0-3.29,1.15-6.09,3.45-8.4c2.3-2.31,5.1-3.47,8.38-3.47h14.21c1.07,0,1.97,0.3,2.69,0.9c0.73,0.6,1.09,1.44,1.09,2.51v5.3
		h-15.82c-1.2,0-2.21,0.41-3.03,1.23c-0.82,0.83-1.23,1.84-1.23,3.05v10.47c0,1.2,0.41,2.22,1.23,3.04
		c0.82,0.83,1.83,1.24,3.03,1.24h6.73c3.28,0,6.07,1.16,8.37,3.47c2.31,2.31,3.46,5.11,3.46,8.4V442.5z"/>
	<path class="st1" d="M387.85,442.5c0,3.29-1.15,6.1-3.46,8.41c-2.3,2.31-5.1,3.47-8.38,3.47H358.3c-1.07,0-1.97-0.3-2.69-0.9
		c-0.73-0.6-1.09-1.44-1.09-2.51v-5.31h19.32c1.2,0,2.21-0.41,3.03-1.23c0.82-0.82,1.22-1.84,1.22-3.05v-10.47
		c0-1.21-0.41-2.22-1.22-3.04c-0.82-0.83-1.84-1.24-3.03-1.24h-6.72c-3.29,0-6.08-1.15-8.38-3.46c-2.3-2.31-3.46-5.11-3.46-8.41
		v-12.72c0-3.29,1.16-6.09,3.46-8.4c2.3-2.31,5.09-3.47,8.38-3.47h14.2c1.08,0,1.97,0.3,2.7,0.9c0.72,0.6,1.09,1.44,1.09,2.51v5.3
		h-15.82c-1.2,0-2.21,0.41-3.03,1.23c-0.82,0.83-1.23,1.84-1.23,3.05v10.47c0,1.2,0.41,2.22,1.23,3.04
		c0.82,0.83,1.83,1.24,3.03,1.24h6.72c3.28,0,6.07,1.16,8.38,3.47c2.3,2.31,3.46,5.11,3.46,8.4V442.5z"/>
</g>
</svg>
